<?xml version="1.0" encoding="utf-8"?>
<!-- Generator: Adobe Illustrator 16.0.4, SVG Export Plug-In . SVG Version: 6.00 Build 0)  -->
<!DOCTYPE svg PUBLIC "-//W3C//DTD SVG 1.1//EN" "http://www.w3.org/Graphics/SVG/1.1/DTD/svg11.dtd">
<svg version="1.1" id="Layer_2" xmlns="http://www.w3.org/2000/svg" xmlns:xlink="http://www.w3.org/1999/xlink" x="0px" y="0px"
	 width="100px" height="160px" viewBox="0 0 100 160" enable-background="new 0 0 100 160" xml:space="preserve">
<polygon fill="#CACACA" points="49,2 58,30 58,38 78,58 78,117 69.7,117 64,158 16,158 10.3,117 2,117 2,58 22,38 22,30 31,2 "/>
<polygon fill="#B1B1B1" points="49,2 58,30 49,30 45,2 "/>
<polygon fill="#B1B1B1" points="58,38 77,57 56,57 48,38 "/>
<polygon fill="#B1B1B1" points="78,59 78,117 69.7,117 64,158 50,158 56,59 "/>
<polygon fill="#B1B1B1" points="58,32 58,36 48,36 48,33 22,33 22,32 "/>
<g>
	<path fill="#E9E9E9" d="M49,2l9,28H22l9-28H49 M50.5,0H49H31h-1.5l-0.4,1.4l-9,28L19.3,32H22h36h2.7l-0.8-2.6l-9-28L50.5,0L50.5,0z
		"/>
</g>
<g>
	<path fill="#E9E9E9" d="M58,32v6l20,20L64,158H16L2,58l20-20v-6H58 M60,30h-2H22h-2v2v5.2L0.6,56.6l-0.7,0.7l0.1,1l14,100l0.2,1.7
		H16h48h1.7l0.2-1.7l14-100l0.1-1l-0.7-0.7L60,37.2V32V30L60,30z"/>
</g>
<line fill="none" stroke="#E9E9E9" stroke-width="2" stroke-miterlimit="10" x1="22" y1="37" x2="58" y2="37"/>
<line fill="none" stroke="#E9E9E9" stroke-width="2" stroke-miterlimit="10" x1="1" y1="58" x2="79" y2="58"/>
<polyline fill="none" stroke="#E9E9E9" stroke-width="2" stroke-miterlimit="10" points="1,58 1,118 10,118 "/>
<polyline fill="none" stroke="#E9E9E9" stroke-width="2" stroke-miterlimit="10" points="79,58 79,118 71,118 "/>
<line fill="none" stroke="#E9E9E9" stroke-width="2" stroke-miterlimit="10" x1="79" y1="106" x2="72" y2="106"/>
<line fill="none" stroke="#E9E9E9" stroke-width="2" stroke-miterlimit="10" x1="8" y1="106" x2="1" y2="106"/>
<line fill="none" stroke="#333333" stroke-width="2" stroke-miterlimit="10" x1="30" y1="22" x2="38" y2="22"/>
<line fill="none" stroke="#ED1C24" stroke-width="2" stroke-miterlimit="10" x1="38" y1="26" x2="42" y2="26"/>
<line fill="none" stroke="#333333" stroke-width="2" stroke-miterlimit="10" x1="42" y1="22" x2="50" y2="22"/>
</svg>
